<svg width="107" height="67" viewBox="0 0 107 67" fill="none" xmlns="http://www.w3.org/2000/svg">
<path d="M93.4442 37.6413C95.0514 37.9428 96.5564 38.7588 97.7022 40.0279C102.681 45.5424 105.455 51.7551 106.062 58.2689C106.224 60.0087 106.229 61.7313 106.093 63.4285C105.95 65.2181 104.386 66.5027 102.591 66.5027C100.197 66.5027 98.4509 64.2559 98.5418 61.8629C98.6479 59.0692 98.2363 56.2693 97.2257 53.5166C96.664 51.9865 95.9172 50.471 94.9714 48.9794C94.1476 47.6801 93.1729 46.399 92.0379 45.1419C92.0379 45.1419 92.0379 49.0522 88.2862 52.6961C87.8229 53.146 87.3024 53.5919 86.7176 54.0259C86.9259 53.1115 87.0817 52.1689 87.1841 51.2029C87.2466 50.6134 87.2892 50.0151 87.3117 49.4091C87.3632 48.0231 87.3095 46.5966 87.1478 45.1419C86.9686 43.5295 86.6567 41.8816 86.2087 40.2167C83.5931 30.4979 76.3344 20.1704 63.7008 12.565C60.6869 10.7506 57.3672 9.09118 53.7316 7.63188C53.7316 7.63188 56.5539 11.3386 56.435 17.2393C56.3079 23.5491 52.8177 32.3676 38.9173 41.845L38.9071 41.852C38.0715 42.4245 37.2745 42.9378 36.5151 43.4269L36.5149 43.427C34.2423 44.8906 32.3068 46.1372 30.6814 48.1033C30.0931 46.2353 30.1202 44.3673 30.5045 42.6039C31.01 40.2849 32.1332 38.1466 33.2868 36.4268C34.9645 33.9257 36.7066 32.3096 36.7066 32.3096C31.8852 33.4692 27.7188 35.2142 24.1644 37.3854C13.995 43.597 8.8349 53.296 7.67348 62.7474C7.41889 64.8192 5.74107 66.5027 3.65367 66.5027C1.53304 66.5027 -0.19729 64.7695 0.0181299 62.6598C1.64873 46.6909 12.5062 30.281 34.9221 24.8898C38.1611 24.1108 41.5132 25.5238 43.2268 28.3439C47.746 23.4787 48.6714 19.6546 48.7918 17.4456C48.8899 15.6451 48.505 14.2061 48.118 13.2425C47.9247 12.7611 47.7378 12.4171 47.6301 12.235C47.5966 12.1784 47.5718 12.1392 47.5583 12.1182C45.5808 9.39829 45.6149 5.69413 47.6605 3.00816C49.7406 0.276954 53.3884 -0.729079 56.5744 0.54978C76.8941 8.70607 89.317 23.1661 93.4442 37.6413Z" fill="black"/>
</svg>
