<svg width="63" height="23" viewBox="0 0 63 23" fill="none" xmlns="http://www.w3.org/2000/svg">
<path d="M27.2068 22.0395C26.8715 22.5282 26.292 22.8199 25.6557 22.8199L21.3679 22.8191L19.8303 6.2516H24.9867L25.9386 16.5111L32.4212 7.05726C32.452 7.01314 32.4881 6.96575 32.5324 6.91427L32.5405 6.90365C33.4373 5.73275 34.3485 5.56524 35.1522 5.41817C35.8365 5.29315 36.4829 5.17467 36.9213 4.49566C37.16 4.12634 37.2603 3.80277 37.349 3.51678C37.4565 3.16952 37.5496 2.87046 37.8598 2.50603C38.4248 1.84337 39.3983 1.63419 40.1161 1.57536C40.3294 1.55744 40.5253 1.54707 40.7142 1.53707L40.7932 1.53287C41.3925 1.50182 41.9097 1.47486 42.5931 1.27794C43.2838 1.07857 43.9672 0.612005 44.2772 0C44.5096 0.586675 44.5475 1.23545 44.3748 1.85563C44.1416 2.69152 43.5052 3.44161 42.6708 3.85996C42.1121 4.14023 41.6719 4.22602 41.2046 4.31672L41.1985 4.31789C40.8443 4.38697 40.4791 4.45817 40.0746 4.61905C38.9674 5.05945 38.1828 6.10957 37.5513 6.95445L37.5478 6.95921L27.2068 22.0395Z" fill="black"/>
<path d="M9.84461 22.7651C11.4013 22.681 12.8188 22.3917 14.0591 21.9064C15.4539 21.3605 16.5785 20.5189 17.2258 19.536C17.9436 18.4468 18.0764 17.1255 17.5739 16.087C17.0332 14.9708 15.765 14.1113 13.8069 13.5328C13.4498 13.4273 12.9607 13.3048 12.4437 13.1757C10.9331 12.7982 9.06088 12.33 8.18584 11.7466C7.93627 11.5807 7.80791 11.3168 7.84322 11.0414C7.87933 10.7612 8.07461 10.5258 8.36567 10.4131C9.29951 10.0511 10.6736 9.94161 12.4482 10.0879C13.7798 10.1974 15.2949 10.4523 16.7449 10.8094L17.8559 7.06053C14.8673 6.36927 11.5578 6.089 9.35285 6.34639C7.65158 6.54494 6.30546 6.93143 5.23787 7.52791C3.9795 8.23143 3.1071 9.28957 2.84675 10.4302C2.43094 12.2458 2.97784 13.4837 4.7334 14.7012C6.0804 15.6351 9.39536 16.8395 12.6127 17.2375L12.6224 17.2387C12.7303 17.2519 12.8203 17.3272 12.8522 17.4311C12.8812 17.5349 12.8378 17.6419 12.7419 17.704C11.5396 18.4966 9.3935 18.8145 6.85329 18.5751C4.75687 18.3781 2.6533 17.816 1.24486 17.0871L-1.23382e-05 21.287C1.76738 22.1499 4.49925 23.0552 9.84461 22.7651Z" fill="black"/>
<path d="M41.2317 6.25242H44.9697L40.4206 21.5975C40.2074 22.3182 39.4823 22.8207 38.6578 22.8207H34.9198L39.4688 7.47562C39.6821 6.75494 40.4072 6.25242 41.2317 6.25242Z" fill="black"/>
<path fill-rule="evenodd" clip-rule="evenodd" d="M57.2434 6.25242H48.9129C48.0885 6.25242 47.3635 6.75494 47.1501 7.47562L42.6011 22.8207H46.3392C47.1637 22.8207 47.8886 22.3182 48.102 21.5983L49.251 17.722H53.6941C57.2279 17.722 60.8747 15.1204 61.823 11.9223C62.2858 10.3616 62.0382 8.90962 61.1251 7.83514C60.259 6.8154 58.8805 6.25242 57.2434 6.25242ZM57.0453 12.075C56.2389 13.4568 55.0095 13.7395 53.4112 13.7395H50.4307L51.6204 9.72835H55.5791C56.0121 9.72835 56.4252 9.87461 56.7425 10.141C57.3174 10.6223 57.4395 11.4001 57.0453 12.075Z" fill="black"/>
</svg>
