<svg width="33" height="34" viewBox="0 0 33 34" fill="none" xmlns="http://www.w3.org/2000/svg">
<path d="M32.8496 4.33211L29.5121 29.4128C29.3503 30.6288 28.7971 31.6168 27.8475 32.4149C26.8495 33.2889 25.7588 33.7069 24.5703 33.7069H3.76408C2.57566 33.7069 1.63455 33.2889 0.869132 32.4149C0.170271 31.6168 -0.114884 30.5908 0.0418801 29.4128L3.37944 4.33211C3.53621 3.15408 4.09444 2.12806 5.04403 1.33004C6.00373 0.456013 7.09949 0 8.2879 0H29.0558C30.2442 0 31.2237 0.418012 31.9891 1.29204C32.7263 2.09005 33.0115 3.11608 32.8496 4.33211ZM8.93902 13.8324H24.7233L25.7296 6.27017C25.7953 5.77615 25.5957 5.54815 25.0973 5.54815H10.7698C10.2714 5.54815 10.0111 5.77615 9.94535 6.27017L8.93902 13.8324ZM23.9192 19.8745H8.13497L7.12865 27.4367C7.06291 27.9307 7.26259 28.1587 7.76095 28.1587H22.0884C22.5868 28.1587 22.8472 27.9307 22.9129 27.4367L23.9192 19.8745Z" fill="black"/>
</svg>
