<svg width="35" height="35" viewBox="0 0 35 35" fill="none" xmlns="http://www.w3.org/2000/svg">
<path d="M34.8278 4.29412L34.2109 8.93024C34.0541 10.1083 33.4959 11.1343 32.5412 11.9703C31.5866 12.8063 30.4959 13.2244 29.3075 13.2244H10.2545C9.06607 13.2244 8.08663 12.8063 7.35449 11.9703C6.62235 11.1343 6.33719 10.1083 6.49395 8.93024L7.1109 4.29412C7.26766 3.11608 7.82589 2.09006 8.78054 1.25403C9.73518 0.41801 10.8259 0 12.0143 0H31.0673C32.2557 0 33.2351 0.41801 33.9673 1.25403C34.6994 2.09006 34.9846 3.11608 34.8278 4.29412ZM13.8171 6.04216L13.6654 7.18219C13.6047 7.6382 13.8044 7.86621 14.3027 7.86621H26.6469C27.1453 7.86621 27.4057 7.6382 27.4663 7.18219L27.6181 6.04216C27.6787 5.58615 27.4791 5.35814 26.9807 5.35814H14.6365C14.1381 5.35814 13.8778 5.58615 13.8171 6.04216ZM34.6134 15.1244L33.43 24.0166C33.3542 24.5866 33.007 24.8907 32.3937 24.8907H27.3333C26.7583 24.8907 26.492 24.5866 26.5679 24.0166L27.1393 19.7225H10.6548L10.0834 24.0166C10.0076 24.5866 9.66041 24.8907 9.08537 24.8907H4.02502C3.44998 24.8907 3.18375 24.5866 3.2596 24.0166L4.44292 15.1244C4.52383 14.5164 4.87098 14.2124 5.44602 14.2124H33.8147C34.428 14.2124 34.6943 14.5164 34.6134 15.1244ZM1.72602 27.4747C8.64966 27.5887 13.2121 26.1447 14.7239 21.6986C14.9147 21.1286 15.2568 20.8626 15.7935 20.8626H21.1989C21.7739 20.8626 22.0402 21.1666 21.9159 21.8126C21.2126 25.0807 19.9204 27.5887 17.9576 29.3748C14.1854 32.9469 8.80189 33.9349 0.812833 34.0489C0.199457 34.0489 -0.0667748 33.7449 0.0141358 33.1369L0.651307 28.3487C0.732218 27.7407 1.07936 27.4367 1.72602 27.4747ZM33.0382 34.1629C30.3358 33.4409 26.4066 32.7189 21.1761 31.6928C20.6162 31.5788 20.3883 31.2748 20.4642 30.7048L21.0306 26.4487C21.1115 25.8407 21.502 25.4987 22.1002 25.6127C26.4894 26.3347 30.5235 27.1327 34.1056 28.1587C34.5837 28.3107 34.8066 28.6528 34.7408 29.1468L34.1744 33.4029C34.0935 34.0109 33.6314 34.3149 33.0382 34.1629Z" fill="black"/>
</svg>
