<svg width="37" height="34" viewBox="0 0 37 34" fill="none" xmlns="http://www.w3.org/2000/svg">
<path d="M36.5878 7.29619L35.9961 11.7423C35.9152 12.3503 35.5681 12.6543 34.9547 12.6543C33.5312 12.6923 32.1279 12.5783 30.6581 12.3883L30.1524 16.1884C30.0715 16.7964 29.7244 17.1004 29.1493 17.1004H6.64611C6.07107 17.1004 5.80484 16.7964 5.88575 16.1884L6.39144 12.3883C4.87105 12.5783 3.43745 12.6923 2.02408 12.6543C1.4107 12.6543 1.14447 12.3503 1.22538 11.7423L1.81704 7.29619C1.89289 6.72618 2.24003 6.42217 2.85847 6.38417C7.51229 6.27016 13.4482 3.7241 15.9713 0.608014C16.2953 0.190004 16.6656 0 17.1256 0H23.2211C23.6811 0 24.0008 0.190004 24.2135 0.608014C25.9074 3.7241 31.1656 6.27016 35.7891 6.38417C36.3974 6.42217 36.6636 6.72618 36.5878 7.29619ZM10.0296 11.5523H27.2041C23.6806 10.3743 21.0452 8.28422 19.4159 5.54814C17.0966 8.28422 13.8666 10.3743 10.0296 11.5523ZM34.3448 20.4065L33.8492 24.1306C33.7683 24.7387 33.4212 25.0427 32.8078 25.0427H12.6047C11.9496 26.2207 11.353 27.2467 10.6313 28.3487H29.8275C30.4025 28.3487 30.6687 28.6528 30.5929 29.2228L30.0973 32.9469C30.0164 33.5549 29.6692 33.8589 29.0942 33.8589H0.735756C0.199052 33.8589 -0.0440155 33.6689 0.00655361 33.2889C0.0267813 33.1369 0.0904018 32.9469 0.192358 32.7569C1.86282 30.2868 3.4385 27.6647 4.97584 25.0427H0.835552C0.222176 25.0427 -0.0440564 24.7387 0.0368542 24.1306L0.532432 20.4065C0.613343 19.7985 0.960487 19.4945 1.57386 19.4945H33.5461C34.1595 19.4945 34.4257 19.7985 34.3448 20.4065ZM31.8554 29.1848L31.1529 32.9024C31.0669 33.5484 30.8226 33.8969 30.176 33.8589C25.1758 33.8589 22.7006 30.8568 22.8764 26.9427C22.9241 26.2967 23.2712 25.9927 23.9229 25.9927H28.9833C29.4816 25.9927 29.7529 26.2587 29.8355 26.7907C30.0229 27.3987 30.4555 27.8927 31.1768 28.2347C31.6932 28.3867 31.9211 28.6908 31.8554 29.1848Z" fill="black"/>
</svg>
