<svg width="35" height="35" viewBox="0 0 35 35" fill="none" xmlns="http://www.w3.org/2000/svg">
<path d="M15.18 1.7757C19.0063 0.360225 22.8746 0.258339 26.1124 1.48468C29.3486 2.71225 31.7447 5.18634 32.896 8.47093C34.047 11.7547 33.8844 15.6458 32.4419 19.4736C31.1892 22.7974 29.0365 25.9009 26.2758 28.3822H32.5571C33.119 28.3824 33.4652 28.8244 33.3301 29.3699L32.5888 32.3635C32.3811 33.2018 31.5121 33.8811 30.6485 33.8811H13.0332C9.29956 33.8777 6.02736 32.5127 3.78048 30.0316C1.53454 27.5516 0.452149 24.1136 0.709765 20.3163C0.96742 16.519 2.54876 12.5906 5.18553 9.20652C7.82243 5.82345 11.3553 3.19062 15.18 1.7757ZM21.9602 6.3068C20.0137 5.88102 17.8315 6.09995 15.6877 6.93812C13.6768 7.72439 11.7794 9.02239 10.21 10.6929L9.90041 11.0322C8.27199 12.8671 7.10879 15.0295 6.56064 17.2431C5.83032 20.2109 6.25913 23.0492 7.74021 25.1346C9.22189 27.2187 11.6304 28.3801 14.4309 28.3831L14.8234 28.3756C16.7959 28.3001 18.8568 27.6604 20.7786 26.5176L21.16 26.2825C23.051 25.0793 24.7105 23.4322 25.9434 21.5182L25.9436 21.5173C27.2599 19.4758 28.0286 17.2267 28.153 15.0562C28.2772 12.8861 27.7489 10.8977 26.6434 9.34113C25.5385 7.78548 23.907 6.73271 21.9602 6.3068Z" fill="black" stroke="black" stroke-width="1.30737"/>
</svg>
